# xmcd
#
# Track frame offsets:
#	150
#	17153
#	37098
#	54943
#	71953
#	88715
#	107248
#	124233
#	137075
#	153263
#	169528
#
# Disc length: 2521 seconds
#
# Revision: 4
# Processed by: cddbd v1.5.2PL0 Copyright (c) Steve Scherf et al.
# Submitted via: EasyCDDAExtractor 5.1.0
#
DISCID=9509d70b
DTITLE=Ορφέας Περίδης - Καλή σου μέρα αν ξυπνάς
DYEAR=1996
DGENRE=Other
TTITLE0=Τα τραγούδια μου τα αμερικάνικα
TTITLE1=Ο καφές
TTITLE2=Αχ, να σε δω
TTITLE3=Κάτι μου κρύβεις
TTITLE4=Δε σε κοιτάω στα μάτια
TTITLE5=Στάγδειν βραδέως
TTITLE6=Αυγερινός
TTITLE7=Εθνικό έλλειμμα
TTITLE8=Καρδερίνα
TTITLE9=Είμαστε όλοι εδώ
TTITLE10=Ατέλειωτο τραγούδι
EXTD=YEAR: 1996 ID3G: 12
EXTT0=
EXTT1=
EXTT2=
EXTT3=
EXTT4=
EXTT5=
EXTT6=
EXTT7=
EXTT8=
EXTT9=
EXTT10=
PLAYORDER=
